<svg width="800" height="450" viewBox="-50 -600 800 450" xmlns="http://www.w3.org/2000/svg" xmlns:xlink="http://www.w3.org/1999/xlink"><g transform="translate(0, -200) scale(1,-1)"><line x0="-1000" x1="2000" y0="0" y1="0" stroke="black" vector-effect="non-scaling-stroke" shape-rendering="crispEdges" /><line y0="-1000" y1="1000" x0="0" x1="0" stroke="black" vector-effect="non-scaling-stroke" shape-rendering="crispEdges" /><circle cx="650" cy="150" r="5" fill="green" /><path d="M0.00 0.00L11.79 29.79L23.58 58.57L35.37 86.36L47.16 113.14L58.95 138.93L70.74 163.72L82.53 187.50L94.32 210.29L106.11 232.07L117.90 252.86L129.69 272.65L141.48 291.43L153.27 309.22L165.06 326.00L176.85 341.79L188.64 356.58L200.43 370.36L212.22 383.15L224.01 394.93L235.81 405.72L247.60 415.51L259.39 424.29L271.18 432.08L282.97 438.86L294.76 444.65L306.55 449.44L318.34 453.22L330.13 456.01L341.92 457.79L353.71 458.58L365.50 458.37L377.29 457.15L389.08 454.94L400.87 451.72L412.66 447.51L424.45 442.30L436.24 436.08L448.03 428.87L459.82 420.65L471.61 411.44L483.40 401.22L495.19 390.01L506.98 377.80L518.77 364.58L530.56 350.37L542.35 335.15L554.14 318.94L565.93 301.73L577.72 283.51L589.51 264.30L601.30 244.08L613.09 222.87L624.88 200.66L636.67 177.44L648.46 153.23L650.00 150.00" fill="none" stroke="red" style="opacity: 0.5;" id="B_s1" /><path d="M0.00 0.00L26.86 17.80L53.72 34.60L80.58 50.40L107.44 65.19L134.30 78.99L161.16 91.79L188.01 103.59L214.87 114.39L241.73 124.19L268.59 132.98L295.45 140.78L322.31 147.58L349.17 153.38L376.03 158.18L402.89 161.98L429.75 164.77L456.61 166.57L483.47 167.37L510.33 167.17L537.18 165.97L564.04 163.77L590.90 160.56L617.76 156.36L644.62 151.16L650.00 150.00" fill="none" stroke="blue" style="opacity: 0.5;" id="B_s2" /><circle r="5" fill="red"><animateMotion id="B_m" dur="2.7565143" fill="freeze" begin="0s;B_m.end+1s" calcMode="linear"><mpath xlink:href="#B_s1"></mpath></animateMotion></circle><circle r="5" fill="blue"><animateMotion dur="1.2100123" fill="freeze" begin="0s;B_m.end+1s" calcMode="linear"><mpath xlink:href="#B_s2"></mpath></animateMotion></circle></g></svg>
