<svg width="800" height="450" viewBox="-50 -600 800 450" xmlns="http://www.w3.org/2000/svg" xmlns:xlink="http://www.w3.org/1999/xlink"><g transform="translate(0, -200) scale(1,-1)"><line x0="-1000" x1="2000" y0="0" y1="0" stroke="black" vector-effect="non-scaling-stroke" shape-rendering="crispEdges" /><line y0="-1000" y1="1000" x0="0" x1="0" stroke="black" vector-effect="non-scaling-stroke" shape-rendering="crispEdges" /><path d="M450.00 0.00L455.00 4.94L460.00 9.75L465.00 14.44L470.00 19.00L475.00 23.44L480.00 27.75L485.00 31.94L490.00 36.00L495.00 39.94L500.00 43.75L505.00 47.44L510.00 51.00L515.00 54.44L520.00 57.75L525.00 60.94L530.00 64.00L535.00 66.94L540.00 69.75L545.00 72.44L550.00 75.00L555.00 77.44L560.00 79.75L565.00 81.94L570.00 84.00L575.00 85.94L580.00 87.75L585.00 89.44L590.00 91.00L595.00 92.44L600.00 93.75L605.00 94.94L610.00 96.00L615.00 96.94L620.00 97.75L625.00 98.44L630.00 99.00L635.00 99.44L640.00 99.75L645.00 99.94L650.00 100.00L655.00 99.94L660.00 99.75L665.00 99.44L670.00 99.00L675.00 98.44L680.00 97.75L685.00 96.94L690.00 96.00L695.00 94.94L700.00 93.75L705.00 92.44L710.00 91.00L715.00 89.44L720.00 87.75L724.96 85.95" fill="none" stroke="green" style="opacity: 0.5;" id="A_s0" /><path d="M0.00 0.00L14.19 25.93L28.37 50.87L42.56 74.80L56.74 97.74L70.93 119.67L85.11 140.60L99.30 160.54L113.49 179.47L127.67 197.41L141.86 214.34L156.04 230.28L170.23 245.21L184.42 259.14L198.60 272.08L212.79 284.01L226.97 294.95L241.16 304.88L255.34 313.81L269.53 321.75L283.72 328.68L297.90 334.62L312.09 339.55L326.27 343.49L340.46 346.42L354.64 348.35L368.83 349.29L383.02 349.22L397.20 348.16L411.39 346.09L425.57 343.02L439.76 338.96L453.95 333.89L468.13 327.83L482.32 320.76L496.50 312.69L510.69 303.63L524.87 293.56L539.06 282.50L553.25 270.43L567.43 257.37L581.62 243.30L595.80 228.23L609.99 212.17L624.17 195.10L638.36 177.04L652.55 157.97L666.73 137.90L680.92 116.84L695.00 94.94" fill="none" stroke="red" style="opacity: 0.5;" id="A_s1" /><path d="M0.00 0.00L26.43 13.69L52.87 26.37L79.30 38.06L105.74 48.74L132.17 58.43L158.60 67.12L185.04 74.80L211.47 81.49L237.91 87.17L264.34 91.86L290.77 95.55L317.21 98.23L343.64 99.92L370.08 100.61L396.51 100.29L422.94 98.98L449.38 96.66L475.81 93.35L502.25 89.04L528.68 83.72L555.00 77.44" fill="none" stroke="blue" style="opacity: 0.5;" id="A_s2" /><circle r="5" fill="green"><animateMotion dur="2.7496343" fill="freeze" begin="0s;A_m.end+1s" calcMode="linear"><mpath xlink:href="#A_s0"></mpath></animateMotion></circle><circle r="5" fill="red"><animateMotion id="A_m" dur="2.4496343" fill="freeze" begin="0s;A_m.end+1s" calcMode="linear"><mpath xlink:href="#A_s1"></mpath></animateMotion></circle><circle r="5" fill="blue"><animateMotion dur="1.0497859" fill="freeze" begin="0s;A_m.end+1s" calcMode="linear"><mpath xlink:href="#A_s2"></mpath></animateMotion></circle></g></svg>
