<svg width="800" height="450" viewBox="-50 -600 800 450" xmlns="http://www.w3.org/2000/svg" xmlns:xlink="http://www.w3.org/1999/xlink"><g transform="translate(0, -200) scale(1,-1)"><line x0="-1000" x1="2000" y0="0" y1="0" stroke="black" vector-effect="non-scaling-stroke" shape-rendering="crispEdges" /><line y0="-1000" y1="1000" x0="0" x1="0" stroke="black" vector-effect="non-scaling-stroke" shape-rendering="crispEdges" /><path d="M750.00 50.00L748.00 60.98L745.01 71.87L741.03 82.55L736.11 92.94L730.26 102.94L723.53 112.46L715.98 121.42L707.67 129.74L698.66 137.33L689.03 144.15L678.86 150.12L668.24 155.20L657.25 159.36L646.00 162.54L634.57 164.75L623.08 165.96L611.62 166.17L600.28 165.38L589.17 163.63L578.39 160.93L568.02 157.32L558.15 152.85L548.87 147.57L540.26 141.55L532.39 134.85L525.31 127.55L519.09 119.74L513.78 111.50L509.40 102.92L506.00 94.11L503.59 85.16L502.17 76.16L501.75 67.23L502.32 58.45L503.85 49.92L506.32 41.75L509.69 34.02L513.90 26.81L518.91 20.22L524.64 14.32L531.02 9.17L537.97 4.84L545.42 1.38L553.27 -1.16L561.42 -2.75L569.78 -3.37L578.26 -2.99L586.75 -1.62L595.15 0.75L603.37 4.11L611.30 8.42L618.85 13.65L625.94 19.77L632.47 26.72L638.37 34.45L643.56 42.87L647.97 51.93L651.55 61.54L654.25 71.61L656.02 82.06L656.83 92.78L656.65 103.69L655.49 114.68L653.32 125.65L651.24 133.19" fill="none" stroke="green" style="opacity: 0.5;" id="C_s0" /><path d="M0.00 0.00L11.14 30.03L22.28 59.06L33.42 87.09L44.56 114.13L55.70 140.16L66.83 165.19L77.97 189.22L89.11 212.25L100.25 234.28L111.39 255.31L122.53 275.35L133.67 294.38L144.81 312.41L155.95 329.44L167.09 345.47L178.23 360.50L189.36 374.53L200.50 387.57L211.64 399.60L222.78 410.63L233.92 420.66L245.06 429.69L256.20 437.72L267.34 444.76L278.48 450.79L289.62 455.82L300.76 459.85L311.90 462.88L323.03 464.91L334.17 465.94L345.31 465.98L356.45 465.01L367.59 463.04L378.73 460.07L389.87 456.10L401.01 451.13L412.15 445.16L423.29 438.20L434.43 430.23L445.56 421.26L456.70 411.29L467.84 400.32L478.98 388.35L490.12 375.38L501.26 361.42L512.40 346.45L523.54 330.48L534.68 313.51L545.82 295.54L556.96 276.57L568.09 256.60L579.23 235.64L590.37 213.67L601.51 190.70L612.65 166.73L623.79 141.76L634.93 115.79L646.07 88.82L653.78 69.56" fill="none" stroke="red" style="opacity: 0.5;" id="C_s1" /><path d="M0.00 0.00L27.07 17.49L54.13 33.98L81.20 49.47L108.27 63.96L135.34 77.45L162.40 89.94L189.47 101.43L216.54 111.92L243.60 121.40L270.67 129.89L297.74 137.38L324.81 143.87L351.87 149.36L378.94 153.85L406.01 157.34L433.07 159.83L460.14 161.32L487.21 161.81L514.28 161.30L541.34 159.79L568.02 157.32" fill="none" stroke="blue" style="opacity: 0.5;" id="C_s2" /><circle r="5" fill="green"><animateMotion dur="3.2346222" fill="freeze" begin="0s;C_m.end+1s" calcMode="linear"><mpath xlink:href="#C_s0"></mpath></animateMotion></circle><circle r="5" fill="red"><animateMotion id="C_m" dur="2.9346223" fill="freeze" begin="0s;C_m.end+1s" calcMode="linear"><mpath xlink:href="#C_s1"></mpath></animateMotion></circle><circle r="5" fill="blue"><animateMotion dur="1.04927" fill="freeze" begin="0s;C_m.end+1s" calcMode="linear"><mpath xlink:href="#C_s2"></mpath></animateMotion></circle></g></svg>
