<svg width="800" height="450" viewBox="-50 -600 800 450" xmlns="http://www.w3.org/2000/svg" xmlns:xlink="http://www.w3.org/1999/xlink"><g transform="translate(0, -200) scale(1,-1)"><line x0="-1000" x1="2000" y0="0" y1="0" stroke="black" vector-effect="non-scaling-stroke" shape-rendering="crispEdges" /><line y0="-1000" y1="1000" x0="0" x1="0" stroke="black" vector-effect="non-scaling-stroke" shape-rendering="crispEdges" /><path d="M750.00 50.00L749.88 55.00L749.50 59.98L748.88 64.94L748.01 69.87L746.89 74.74L745.53 79.55L743.94 84.29L742.11 88.94L740.04 93.50L737.76 97.94L735.25 102.27L732.53 106.46L729.61 110.52L726.48 114.42L723.17 118.16L719.67 121.74L716.00 125.13L712.16 128.33L708.17 131.34L704.03 134.15L699.76 136.74L695.36 139.12L690.85 141.28L686.24 143.20L681.53 144.90L676.75 146.36L671.90 147.57L667.00 148.54L662.05 149.27L657.07 149.75L652.08 149.98L647.08 149.96L642.09 149.69L637.12 149.17L632.18 148.40L627.28 147.38L622.44 146.13L617.67 144.63L612.98 142.90L608.39 140.93L603.89 138.74L599.52 136.32L595.26 133.69L591.15 130.85L587.18 127.81L583.37 124.57L579.73 121.15L576.26 117.55L572.98 113.78L569.89 109.85L566.99 105.77L564.31 101.55L561.84 97.20L559.59 92.74L557.57 88.17L555.78 83.50L554.22 78.75L552.90 73.92L551.83 69.04L551.00 64.11L550.42 59.15L550.09 54.16L550.00 49.16L550.17 44.16L550.59 39.18L551.25 34.23L551.52 32.63" fill="none" stroke="green" style="opacity: 0.5;" id="C_s0" /><path d="M0.00 0.00L9.13 30.69L18.26 60.38L27.39 89.07L36.52 116.77L45.65 143.46L54.78 169.15L63.91 193.84L73.04 217.53L82.17 240.22L91.30 261.91L100.43 282.60L109.56 302.30L118.69 320.99L127.82 338.68L136.95 355.37L146.08 371.06L155.21 385.75L164.34 399.44L173.47 412.13L182.60 423.83L191.73 434.52L200.86 444.21L209.99 452.90L219.12 460.59L228.25 467.28L237.38 472.97L246.51 477.66L255.64 481.36L264.77 484.05L273.90 485.74L283.03 486.43L292.16 486.12L301.29 484.81L310.42 482.50L319.55 479.19L328.68 474.89L337.81 469.58L346.94 463.27L356.07 455.96L365.20 447.65L374.33 438.34L383.46 428.03L392.58 416.72L401.71 404.42L410.84 391.11L419.97 376.80L429.10 361.49L438.23 345.18L447.36 327.87L456.49 309.56L465.62 290.25L474.75 269.95L483.88 248.64L493.01 226.33L502.14 203.02L511.27 178.71L520.40 153.40L529.53 127.09L538.66 99.78L547.79 71.48L550.74 62.13" fill="none" stroke="red" style="opacity: 0.5;" id="C_s1" /><path d="M0.00 0.00L26.77 17.92L53.55 34.85L80.32 50.77L107.09 65.70L133.86 79.62L160.64 92.55L187.41 104.47L214.18 115.40L240.96 125.32L267.73 134.25L294.50 142.17L321.27 149.10L348.05 155.02L374.82 159.94L401.59 163.87L428.36 166.79L455.14 168.72L481.91 169.64L508.68 169.57L535.46 168.49L562.23 166.42L589.00 163.34L615.77 159.27L642.55 154.19L669.32 148.12L679.63 145.51" fill="none" stroke="blue" style="opacity: 0.5;" id="C_s2" /><circle r="5" fill="green"><animateMotion dur="3.316131" fill="freeze" begin="0s;C_m.end+1s"><mpath xlink:href="#C_s0"></mpath></animateMotion></circle><circle r="5" fill="red"><animateMotion id="C_m" dur="3.0161312" fill="freeze" begin="0s;C_m.end+1s"><mpath xlink:href="#C_s1"></mpath></animateMotion></circle><circle r="5" fill="blue"><animateMotion dur="1.2692512" fill="freeze" begin="0s;C_m.end+1s"><mpath xlink:href="#C_s2"></mpath></animateMotion></circle></g></svg>